<svg width="32" height="31" viewBox="0 0 32 31" fill="none" xmlns="http://www.w3.org/2000/svg">
<path d="M5.667 30.0627C4.639 30.0627 3.611 29.8544 2.583 29.4377C1.55567 29.0211 0.694667 28.4101 0 27.6047C0.888667 27.3827 1.597 26.9591 2.125 26.3337C2.653 25.7091 2.917 24.8551 2.917 23.7717C2.917 22.5217 3.36133 21.4451 4.25 20.5417C5.13867 19.6391 6.222 19.1877 7.5 19.1877C8.778 19.1877 9.86133 19.6391 10.75 20.5417C11.6387 21.4451 12.083 22.5217 12.083 23.7717C12.083 25.5771 11.458 27.0771 10.208 28.2717C8.958 29.4657 7.44433 30.0627 5.667 30.0627ZM5.667 27.2717C6.639 27.2717 7.486 26.9314 8.208 26.2507C8.93067 25.5701 9.292 24.7437 9.292 23.7717C9.292 23.2437 9.12533 22.8131 8.792 22.4797C8.45867 22.1464 8.028 21.9797 7.5 21.9797C6.972 21.9797 6.53433 22.1464 6.187 22.4797C5.84033 22.8131 5.667 23.2437 5.667 23.7717C5.667 24.7157 5.56267 25.4447 5.354 25.9587C5.146 26.4727 4.792 26.8547 4.292 27.1047C4.45867 27.1327 4.69467 27.1674 5 27.2087C5.30533 27.2507 5.52767 27.2717 5.667 27.2717ZM15.25 20.1467L11.25 15.9797L26.667 0.56273C27.0277 0.202064 27.4373 0.0147301 27.896 0.000730131C28.354 -0.0132699 28.7777 0.174064 29.167 0.56273L30.75 2.10473C31.1387 2.4934 31.3263 2.92406 31.313 3.39673C31.299 3.86873 31.1113 4.29906 30.75 4.68773L15.25 20.1467Z" fill="url(#paint0_linear_21_143)"/>
<defs>
<linearGradient id="paint0_linear_21_143" x1="32.5662" y1="-6.01255" x2="-5.10654" y2="-2.72752" gradientUnits="userSpaceOnUse">
<stop stop-color="#6100FF"/>
<stop offset="1" stop-color="#EB00FF"/>
</linearGradient>
</defs>
</svg>
