<svg width="30" height="30" viewBox="0 0 30 30" fill="none" xmlns="http://www.w3.org/2000/svg">
    <mask id="mask0_9_1159" style="mask-type:alpha" maskUnits="userSpaceOnUse" x="0" y="0" width="30" height="30">
    <rect width="30" height="30" fill="#D9D9D9"/>
    </mask>
    <g mask="url(#mask0_9_1159)">
    <path d="M19.719 20.469L20.469 19.719L15.5625 14.781V8.625H14.4998V15.219L19.719 20.469ZM15 26.25C13.4585 26.25 12.0052 25.953 10.6403 25.359C9.27575 24.7655 8.08325 23.9583 7.06275 22.9373C6.04175 21.9167 5.2345 20.7292 4.641 19.3748C4.047 18.0208 3.75 16.5625 3.75 15C3.75 13.4585 4.047 12.0055 4.641 10.641C5.2345 9.276 6.04175 8.08325 7.06275 7.06275C8.08325 6.04175 9.27075 5.2345 10.6252 4.641C11.9792 4.047 13.4375 3.75 15 3.75C16.5415 3.75 17.9945 4.047 19.359 4.641C20.724 5.2345 21.9167 6.04175 22.9373 7.06275C23.9583 8.08325 24.7655 9.27075 25.359 10.6252C25.953 11.9792 26.25 13.4375 26.25 15C26.25 16.5415 25.953 17.9945 25.359 19.359C24.7655 20.724 23.9583 21.9167 22.9373 22.9373C21.9167 23.9583 20.7292 24.7655 19.3748 25.359C18.0208 25.953 16.5625 26.25 15 26.25ZM15 25.1873C17.8125 25.1873 20.2135 24.1925 22.203 22.203C24.1925 20.2135 25.1873 17.8125 25.1873 15C25.1873 12.1875 24.1925 9.7865 22.203 7.797C20.2135 5.8075 17.8125 4.81275 15 4.81275C12.1875 4.81275 9.7865 5.8075 7.797 7.797C5.8075 9.7865 4.81275 12.1875 4.81275 15C4.81275 17.8125 5.8075 20.2135 7.797 22.203C9.7865 24.1925 12.1875 25.1873 15 25.1873Z" fill="black"/>
    </g>
    </svg>
    