<svg width="34" height="34" viewBox="0 0 34 34" fill="none" xmlns="http://www.w3.org/2000/svg">
<path d="M22.917 24.625L24.958 22.625L18.458 16.125V7.959H15.708V17.209L22.917 24.625ZM17 33.334C14.722 33.334 12.5693 32.8963 10.542 32.021C8.51401 31.1463 6.74301 29.952 5.22901 28.438C3.71501 26.924 2.52067 25.153 1.64601 23.125C0.770674 21.0977 0.333008 18.945 0.333008 16.667C0.333008 14.389 0.770674 12.2363 1.64601 10.209C2.52067 8.181 3.71501 6.41 5.22901 4.896C6.74301 3.382 8.51401 2.18767 10.542 1.313C12.5693 0.437667 14.722 0 17 0C19.278 0 21.4307 0.437667 23.458 1.313C25.486 2.18767 27.257 3.382 28.771 4.896C30.285 6.41 31.4793 8.181 32.354 10.209C33.2293 12.2363 33.667 14.389 33.667 16.667C33.667 18.945 33.2293 21.0977 32.354 23.125C31.4793 25.153 30.285 26.924 28.771 28.438C27.257 29.952 25.486 31.1463 23.458 32.021C21.4307 32.8963 19.278 33.334 17 33.334ZM17 30.542C20.8333 30.542 24.104 29.1877 26.812 26.479C29.5207 23.771 30.875 20.5003 30.875 16.667C30.875 12.8337 29.5207 9.563 26.812 6.855C24.104 4.14633 20.8333 2.792 17 2.792C13.1667 2.792 9.89601 4.14633 7.18801 6.855C4.47934 9.563 3.12501 12.8337 3.12501 16.667C3.12501 20.5003 4.47934 23.771 7.18801 26.479C9.89601 29.1877 13.1667 30.542 17 30.542Z" fill="url(#paint0_linear_21_121)"/>
<defs>
<linearGradient id="paint0_linear_21_121" x1="35.0004" y1="-6.66681" x2="-5.12671" y2="-3.30754" gradientUnits="userSpaceOnUse">
<stop stop-color="#6100FF"/>
<stop offset="1" stop-color="#EB00FF"/>
</linearGradient>
</defs>
</svg>
