<svg width="30" height="30" viewBox="0 0 30 30" fill="none" xmlns="http://www.w3.org/2000/svg">
    <mask id="mask0_13_475" style="mask-type:alpha" maskUnits="userSpaceOnUse" x="0" y="0" width="30" height="30">
    <rect width="30" height="30" fill="#D9D9D9"/>
    </mask>
    <g mask="url(#mask0_13_475)">
    <path d="M5.56275 23.7505C5.06275 23.7505 4.6355 23.5732 4.281 23.2188C3.927 22.8647 3.75 22.4377 3.75 21.9377V8.06275C3.75 7.56275 3.927 7.13575 4.281 6.78175C4.6355 6.42725 5.06275 6.25 5.56275 6.25H24.4373C24.9373 6.25 25.3645 6.42725 25.719 6.78175C26.073 7.13575 26.25 7.56275 26.25 8.06275V21.9377C26.25 22.4377 26.073 22.8647 25.719 23.2188C25.3645 23.5732 24.9373 23.7505 24.4373 23.7505H5.56275ZM15 14.938L4.81275 8.1565V21.9377C4.81275 22.1462 4.8855 22.3232 5.031 22.4688C5.177 22.6147 5.35425 22.6877 5.56275 22.6877H24.4373C24.6458 22.6877 24.823 22.6147 24.969 22.4688C25.1145 22.3232 25.1873 22.1462 25.1873 21.9377V8.1565L15 14.938ZM15 13.7192L24.7815 7.31275H5.25L15 13.7192ZM4.81275 8.1565V7.31275V21.9377C4.81275 22.1462 4.8855 22.3232 5.031 22.4688C5.177 22.6147 5.35425 22.6877 5.56275 22.6877H4.81275V21.9377V8.1565Z" fill="black"/>
    </g>
</svg>
    