<svg width="34" height="34" viewBox="0 0 34 34" fill="none" xmlns="http://www.w3.org/2000/svg">
<path d="M17 33.334C14.6947 33.334 12.528 32.8963 10.5 32.021C8.47201 31.1463 6.70134 29.959 5.18801 28.459C3.67401 26.959 2.48634 25.188 1.62501 23.146C0.763675 21.1047 0.333008 18.931 0.333008 16.625C0.333008 14.2917 0.763675 12.1183 1.62501 10.105C2.48634 8.091 3.67401 6.334 5.18801 4.834C6.70134 3.334 8.47201 2.15333 10.5 1.292C12.528 0.430667 14.6947 0 17 0C19.3333 0 21.507 0.430667 23.521 1.292C25.535 2.15333 27.2987 3.334 28.812 4.834C30.326 6.334 31.5137 8.091 32.375 10.105C33.2363 12.1183 33.667 14.2917 33.667 16.625C33.667 18.931 33.2363 21.1047 32.375 23.146C31.5137 25.188 30.326 26.959 28.812 28.459C27.2987 29.959 25.535 31.1463 23.521 32.021C21.507 32.8963 19.3333 33.334 17 33.334ZM17 30.584C17.8887 29.584 18.6387 28.4727 19.25 27.25C19.8613 26.028 20.3613 24.6253 20.75 23.042H13.292C13.6527 24.542 14.1387 25.917 14.75 27.167C15.3613 28.417 16.1113 29.556 17 30.584ZM13.208 30.042C12.5693 29.014 12.0207 27.9307 11.562 26.792C11.104 25.6533 10.7223 24.4033 10.417 23.042H4.62501C5.59701 24.82 6.74267 26.2507 8.06201 27.334C9.38201 28.4173 11.0973 29.32 13.208 30.042ZM20.833 30C22.6943 29.4167 24.354 28.528 25.812 27.334C27.2707 26.1393 28.4583 24.7087 29.375 23.042H23.625C23.2917 24.3753 22.9027 25.6183 22.458 26.771C22.014 27.9237 21.4723 29 20.833 30ZM3.58301 20.25H9.87501C9.79167 19.556 9.74301 18.9243 9.72901 18.355C9.71501 17.785 9.70801 17.2083 9.70801 16.625C9.70801 15.9583 9.72201 15.3543 9.75001 14.813C9.77801 14.271 9.83367 13.6807 9.91701 13.042H3.58301C3.41634 13.6807 3.29834 14.264 3.22901 14.792C3.15967 15.32 3.12501 15.931 3.12501 16.625C3.12501 17.2917 3.15967 17.903 3.22901 18.459C3.29834 19.0143 3.41634 19.6113 3.58301 20.25ZM12.708 20.25H21.292C21.4027 19.5 21.472 18.8543 21.5 18.313C21.528 17.771 21.542 17.2083 21.542 16.625C21.542 16.0417 21.528 15.493 21.5 14.979C21.472 14.4657 21.4027 13.82 21.292 13.042H12.708C12.6247 13.82 12.5623 14.4657 12.521 14.979C12.479 15.493 12.458 16.0417 12.458 16.625C12.458 17.2083 12.479 17.771 12.521 18.313C12.5623 18.8543 12.6247 19.5 12.708 20.25ZM24.083 20.25H30.417C30.5837 19.6113 30.7017 19.0143 30.771 18.459C30.8403 17.903 30.875 17.2917 30.875 16.625C30.875 15.931 30.8403 15.32 30.771 14.792C30.7017 14.264 30.5837 13.6807 30.417 13.042H24.125C24.2083 13.8753 24.264 14.556 24.292 15.084C24.3193 15.6113 24.333 16.125 24.333 16.625C24.333 17.2083 24.3123 17.771 24.271 18.313C24.229 18.8543 24.1663 19.5 24.083 20.25ZM23.583 10.292H29.375C28.5137 8.542 27.347 7.06967 25.875 5.875C24.403 4.681 22.7087 3.82 20.792 3.292C21.4307 4.292 21.9723 5.35433 22.417 6.479C22.861 7.60433 23.2497 8.87533 23.583 10.292ZM13.292 10.292H20.792C20.4587 8.90333 19.9653 7.57 19.312 6.292C18.6593 5.014 17.8887 3.84733 17 2.792C16.1667 3.62533 15.4583 4.63233 14.875 5.813C14.2917 6.99367 13.764 8.48667 13.292 10.292ZM4.62501 10.292H10.458C10.736 8.93067 11.0973 7.69467 11.542 6.584C11.986 5.47267 12.5277 4.38933 13.167 3.334C11.2503 3.86133 9.57667 4.70833 8.14601 5.875C6.71534 7.04167 5.54167 8.514 4.62501 10.292Z" fill="url(#paint0_linear_21_142)"/>
<defs>
<linearGradient id="paint0_linear_21_142" x1="35.0004" y1="-6.66681" x2="-5.12671" y2="-3.30754" gradientUnits="userSpaceOnUse">
<stop stop-color="#6100FF"/>
<stop offset="1" stop-color="#EB00FF"/>
</linearGradient>
</defs>
</svg>
