<svg width="30" height="30" viewBox="0 0 30 30" fill="none" xmlns="http://www.w3.org/2000/svg">
    <mask id="mask0_5_1671" style="mask-type:alpha" maskUnits="userSpaceOnUse" x="0" y="0" width="30" height="30">
    <rect width="30" height="30" fill="#D9D9D9"/>
    </mask>
    <g mask="url(#mask0_5_1671)">
    <path d="M6.87525 24.3751V14.3753H4.125L15 4.59381L20.4998 9.53106V6.28131H22.7812V11.5936L25.875 14.3753H23.1248V24.3751H16.5315V17.3438H13.4685V24.3751H6.87525ZM8.4375 22.8128H11.8748V15.7816H18.1252V22.8128H21.5625V12.6248L15 6.68781L8.4375 12.6248V22.8128ZM12.5625 12.3436H17.469C17.469 11.7186 17.219 11.1978 16.719 10.7813C16.219 10.3648 15.646 10.1566 15 10.1566C14.354 10.1566 13.7863 10.3596 13.2968 10.7656C12.8073 11.1721 12.5625 11.6981 12.5625 12.3436Z" fill="black"/>
    </g>
    </svg>
    