<svg width="30" height="30" viewBox="0 0 30 30" fill="none" xmlns="http://www.w3.org/2000/svg">
    <mask id="mask0_5_1679" style="mask-type:alpha" maskUnits="userSpaceOnUse" x="0" y="0" width="30" height="30">
    <rect width="30" height="30" fill="#D9D9D9"/>
    </mask>
    <g mask="url(#mask0_5_1679)">
    <path d="M14.4998 20.625H15.5625V13.7498H14.4998V20.625ZM15 12.0315C15.1875 12.0315 15.3542 11.9637 15.5002 11.8282C15.6457 11.6927 15.7185 11.5312 15.7185 11.3438C15.7185 11.1353 15.651 10.9635 15.516 10.8285C15.3805 10.693 15.2085 10.6252 15 10.6252C14.7915 10.6252 14.6195 10.693 14.484 10.8285C14.349 10.9635 14.2815 11.1353 14.2815 11.3438C14.2815 11.5312 14.349 11.6927 14.484 11.8282C14.6195 11.9637 14.7915 12.0315 15 12.0315ZM15 26.25C13.4375 26.25 11.9792 25.953 10.6252 25.359C9.27075 24.7655 8.08325 23.9583 7.06275 22.9373C6.04175 21.9168 5.2345 20.7293 4.641 19.3748C4.047 18.0208 3.75 16.5625 3.75 15C3.75 13.4375 4.047 11.974 4.641 10.6095C5.2345 9.245 6.04175 8.0575 7.06275 7.047C8.08325 6.0365 9.27075 5.2345 10.6252 4.641C11.9792 4.047 13.4375 3.75 15 3.75C16.5625 3.75 18.026 4.047 19.3905 4.641C20.755 5.2345 21.9425 6.0365 22.953 7.047C23.9635 8.0575 24.7655 9.245 25.359 10.6095C25.953 11.974 26.25 13.4375 26.25 15C26.25 16.5625 25.953 18.0208 25.359 19.3748C24.7655 20.7293 23.9635 21.9168 22.953 22.9373C21.9425 23.9583 20.755 24.7655 19.3905 25.359C18.026 25.953 16.5625 26.25 15 26.25ZM15 25.1873C17.8335 25.1873 20.2398 24.1977 22.2188 22.2188C24.1977 20.2398 25.1873 17.8335 25.1873 15C25.1873 12.1665 24.203 9.76025 22.2345 7.78125C20.2655 5.80225 17.854 4.81275 15 4.81275C12.1665 4.81275 9.76025 5.797 7.78125 7.7655C5.80225 9.7345 4.81275 12.146 4.81275 15C4.81275 17.8335 5.80225 20.2398 7.78125 22.2188C9.76025 24.1977 12.1665 25.1873 15 25.1873Z" fill="black"/>
    </g>
    </svg>
    