<svg width="30" height="30" viewBox="0 0 30 30" fill="none" xmlns="http://www.w3.org/2000/svg">
    <mask id="mask0_9_1153" style="mask-type:alpha" maskUnits="userSpaceOnUse" x="0" y="0" width="30" height="30">
    <rect width="30" height="30" fill="#D9D9D9"/>
    </mask>
    <g mask="url(#mask0_9_1153)">
    <path d="M15 14.2812C15.5 14.2812 15.922 14.1093 16.266 13.7653C16.6095 13.4218 16.7812 13 16.7812 12.5C16.7812 12 16.6095 11.578 16.266 11.234C15.922 10.8905 15.5 10.7188 15 10.7188C14.5 10.7188 14.078 10.8905 13.734 11.234C13.3905 11.578 13.2188 12 13.2188 12.5C13.2188 13 13.3905 13.4218 13.734 13.7653C14.078 14.1093 14.5 14.2812 15 14.2812ZM15 25.562C17.6665 23.2495 19.7185 20.9318 21.156 18.6088C22.5935 16.2863 23.3123 14.3333 23.3123 12.7498C23.3123 10.2288 22.5155 8.1715 20.922 6.578C19.328 4.984 17.354 4.187 15 4.187C12.646 4.187 10.672 4.984 9.078 6.578C7.4845 8.1715 6.68775 10.2288 6.68775 12.7498C6.68775 14.3333 7.4115 16.2863 8.859 18.6088C10.307 20.9318 12.354 23.2495 15 25.562ZM15 27.0312C11.8335 24.2188 9.47925 21.6145 7.93725 19.2185C6.39575 16.8225 5.625 14.6663 5.625 12.7498C5.625 9.81225 6.56775 7.47375 8.45325 5.73425C10.3387 3.99475 12.521 3.125 15 3.125C17.479 3.125 19.6613 3.99475 21.5468 5.73425C23.4323 7.47375 24.375 9.81225 24.375 12.7498C24.375 14.6663 23.6042 16.8225 22.0627 19.2185C20.5208 21.6145 18.1665 24.2188 15 27.0312Z" fill="black"/>
    </g>
    </svg>
    