<svg width="110" height="36" viewBox="0 0 110 36" fill="none" xmlns="http://www.w3.org/2000/svg">
    <path d="M10.75 18.05L7.375 9.5H0.875L10.75 28.25L20.625 9.5H14.125L10.75 18.05ZM26.0568 27H34.8818V22.625H26.0568V27ZM26.0568 13.875H34.8818V9.5H26.0568V13.875ZM26.0568 20.125H34.3818V15.875H26.0568V20.125ZM22.2568 9.5V27H27.5068V9.5H22.2568ZM48.251 9.5L46.026 13.725L43.876 9.5H37.001L42.576 18.15L36.376 27H43.251L45.976 22.1L48.626 27H55.501L49.451 18.15L55.126 9.5H48.251ZM67.3672 9.5L65.1422 13.725L62.9922 9.5H56.1172L61.6922 18.15L55.4922 27H62.3672L65.0922 22.1L67.7422 27H74.6172L68.5672 18.15L74.2422 9.5H67.3672ZM80.1584 27H88.9834V22.625H80.1584V27ZM80.1584 13.875H88.9834V9.5H80.1584V13.875ZM80.1584 20.125H88.4834V15.875H80.1584V20.125ZM76.3584 9.5V27H81.6084V9.5H76.3584ZM92.2275 9.5V27H97.9525V9.5H92.2275ZM99.1025 27C101.136 27 102.878 26.65 104.328 25.95C105.794 25.25 106.911 24.25 107.678 22.95C108.461 21.6333 108.853 20.0667 108.853 18.25C108.853 16.4167 108.461 14.85 107.678 13.55C106.911 12.25 105.794 11.25 104.328 10.55C102.878 9.85 101.136 9.5 99.1025 9.5H96.0275V14.25H98.8525C99.3359 14.25 99.8275 14.2917 100.328 14.375C100.828 14.4583 101.286 14.6333 101.703 14.9C102.119 15.1667 102.453 15.5667 102.703 16.1C102.969 16.6333 103.103 17.35 103.103 18.25C103.103 19.15 102.969 19.8667 102.703 20.4C102.453 20.9333 102.119 21.3333 101.703 21.6C101.286 21.8667 100.828 22.0417 100.328 22.125C99.8275 22.2083 99.3359 22.25 98.8525 22.25H96.0275V27H99.1025Z" fill="white"/>
    </svg>
    