<svg width="174" height="30" viewBox="0 0 174 30" fill="none" xmlns="http://www.w3.org/2000/svg">
    <path d="M16.725 13.68L11.325 -1.90735e-06H0.925L16.725 30L32.525 -1.90735e-06H22.125L16.725 13.68ZM41.2159 28H55.3359V21H41.2159V28ZM41.2159 7H55.3359V-1.90735e-06H41.2159V7ZM41.2159 17H54.5359V10.2H41.2159V17ZM35.1359 -1.90735e-06V28H43.5359V-1.90735e-06H35.1359ZM76.7266 -1.90735e-06L73.1666 6.76L69.7266 -1.90735e-06H58.7266L67.6466 13.84L57.7266 28H68.7266L73.0866 20.16L77.3266 28H88.3266L78.6466 13.84L87.7266 -1.90735e-06H76.7266ZM107.313 -1.90735e-06L103.753 6.76L100.313 -1.90735e-06H89.3125L98.2325 13.84L88.3125 28H99.3125L103.673 20.16L107.913 28H118.913L109.233 13.84L118.313 -1.90735e-06H107.313ZM127.778 28H141.898V21H127.778V28ZM127.778 7H141.898V-1.90735e-06H127.778V7ZM127.778 17H141.098V10.2H127.778V17ZM121.698 -1.90735e-06V28H130.098V-1.90735e-06H121.698ZM147.089 -1.90735e-06V28H156.249V-1.90735e-06H147.089ZM158.089 28C161.342 28 164.129 27.44 166.449 26.32C168.796 25.2 170.582 23.6 171.809 21.52C173.062 19.4133 173.689 16.9067 173.689 14C173.689 11.0667 173.062 8.56 171.809 6.48C170.582 4.4 168.796 2.8 166.449 1.68C164.129 0.559998 161.342 -1.90735e-06 158.089 -1.90735e-06H153.169V7.6H157.689C158.462 7.6 159.249 7.66667 160.049 7.8C160.849 7.93333 161.582 8.21333 162.249 8.64C162.916 9.06667 163.449 9.70667 163.849 10.56C164.276 11.4133 164.489 12.56 164.489 14C164.489 15.44 164.276 16.5867 163.849 17.44C163.449 18.2933 162.916 18.9333 162.249 19.36C161.582 19.7867 160.849 20.0667 160.049 20.2C159.249 20.3333 158.462 20.4 157.689 20.4H153.169V28H158.089Z" fill="black"/>
</svg>