<svg width="30" height="30" viewBox="0 0 30 30" fill="none" xmlns="http://www.w3.org/2000/svg">
    <mask id="mask0_9_1165" style="mask-type:alpha" maskUnits="userSpaceOnUse" x="0" y="0" width="30" height="30">
    <rect width="30" height="30" fill="#D9D9D9"/>
    </mask>
    <g mask="url(#mask0_9_1165)">
    <path d="M23.5935 24.8435C21.4685 24.8435 19.307 24.281 17.109 23.156C14.9115 22.031 12.9167 20.5778 11.1248 18.7963C9.33325 17.0153 7.875 15.0258 6.75 12.8278C5.625 10.6298 5.0625 8.46825 5.0625 6.34325C5.0625 5.96825 5.1875 5.65075 5.4375 5.39075C5.6875 5.13025 6.0105 5 6.4065 5H9.24975C9.60425 5 9.9115 5.104 10.1715 5.312C10.432 5.5205 10.5935 5.81225 10.656 6.18725L11.3123 9.03125C11.3748 9.34375 11.3695 9.63525 11.2965 9.90575C11.224 10.1768 11.0835 10.3955 10.875 10.562L8.12475 13.1562C9.31225 15.1353 10.63 16.8435 12.078 18.281C13.526 19.7185 15.2188 20.9685 17.1562 22.031L19.8435 19.25C20.052 19.0205 20.2812 18.8643 20.5312 18.7812C20.7812 18.6978 21.052 18.6873 21.3435 18.7498L23.781 19.2808C24.1355 19.3643 24.4167 19.531 24.6248 19.781C24.8333 20.031 24.9375 20.3435 24.9375 20.7185V23.4995C24.9375 23.8955 24.8125 24.2185 24.5625 24.4685C24.3125 24.7185 23.9895 24.8435 23.5935 24.8435ZM7.56225 12.1873L10.125 9.812C10.1875 9.7495 10.2345 9.66625 10.266 9.56225C10.297 9.45825 10.302 9.354 10.281 9.2495L9.65625 6.437C9.63525 6.312 9.58325 6.21825 9.50025 6.15575C9.41675 6.09325 9.3125 6.062 9.1875 6.062H6.43725C6.35425 6.062 6.27625 6.09325 6.20325 6.15575C6.13025 6.21825 6.09375 6.30175 6.09375 6.40625C6.09375 7.23925 6.224 8.1455 6.4845 9.125C6.745 10.104 7.10425 11.1248 7.56225 12.1873ZM18.156 22.4998C19.0105 22.9373 19.943 23.2603 20.9535 23.4688C21.9635 23.6768 22.8333 23.7913 23.5627 23.8123C23.6458 23.8123 23.7237 23.781 23.7967 23.7185C23.8698 23.656 23.9062 23.5728 23.9062 23.4688V20.7808C23.9062 20.6558 23.8698 20.5465 23.7967 20.453C23.7237 20.359 23.6248 20.3018 23.4998 20.2812L21.0938 19.781C21.0103 19.76 20.932 19.7653 20.859 19.7968C20.7865 19.8278 20.7085 19.8745 20.625 19.937L18.156 22.4998Z" fill="black"/>
    </g>
    </svg>
    