<svg width="38" height="35" viewBox="0 0 38 35" fill="none" xmlns="http://www.w3.org/2000/svg">
<path d="M2.91699 26.5L0.666992 24.875L8.66699 12.084L13.667 17.917L20.292 7.125L24.833 13.917C24.333 13.945 23.847 14.0213 23.375 14.146C22.903 14.2713 22.4447 14.431 22 14.625L20.417 12.25L14.083 22.584L9.04199 16.709L2.91699 26.5ZM35.333 35L29.875 29.542C29.3197 29.9587 28.7017 30.271 28.021 30.479C27.3403 30.6877 26.639 30.792 25.917 30.792C23.889 30.792 22.1737 30.0907 20.771 28.688C19.3683 27.2853 18.667 25.584 18.667 23.584C18.667 21.556 19.3683 19.8407 20.771 18.438C22.1737 17.0353 23.889 16.334 25.917 16.334C27.917 16.334 29.6183 17.0353 31.021 18.438C32.4237 19.8407 33.125 21.556 33.125 23.584C33.125 24.306 33.014 25.0073 32.792 25.688C32.5693 26.3687 32.2637 27.0143 31.875 27.625L37.333 33L35.333 35ZM25.917 28C27.139 28 28.1807 27.5763 29.042 26.729C29.9027 25.8823 30.333 24.834 30.333 23.584C30.333 22.334 29.9093 21.2783 29.062 20.417C28.2153 19.5557 27.167 19.125 25.917 19.125C24.667 19.125 23.6113 19.5557 22.75 20.417C21.8887 21.2783 21.458 22.334 21.458 23.584C21.458 24.806 21.8887 25.8477 22.75 26.709C23.6113 27.5697 24.667 28 25.917 28ZM29.208 14.459C28.736 14.2643 28.257 14.1253 27.771 14.042C27.285 13.9587 26.792 13.903 26.292 13.875L35.083 0L37.333 1.667L29.208 14.459Z" fill="url(#paint0_linear_21_122)"/>
<defs>
<linearGradient id="paint0_linear_21_122" x1="38.7996" y1="-7.00001" x2="-5.30855" y2="-3.1317" gradientUnits="userSpaceOnUse">
<stop stop-color="#6100FF"/>
<stop offset="1" stop-color="#EB00FF"/>
</linearGradient>
</defs>
</svg>
