<svg width="38" height="31" viewBox="0 0 38 31" fill="none" xmlns="http://www.w3.org/2000/svg">
<path d="M12.875 10.334L11.25 6.792L7.70799 5.167L11.25 3.542L12.875 0L14.542 3.542L18.042 5.167L14.542 6.792L12.875 10.334ZM24 15.375L22.625 12.375L19.625 11L22.625 9.625L24 6.625L25.375 9.625L28.375 11L25.375 12.375L24 15.375ZM5.04199 18.709L3.62499 15.709L0.666992 14.334L3.62499 12.959L5.04199 9.959L6.41699 12.959L9.37499 14.334L6.41699 15.709L5.04199 18.709ZM6.12499 30.834L3.99999 28.709L16.5 16.209L23.167 22.917L35.375 9.209L37.333 11.125L23.167 27.084L16.5 20.459L6.12499 30.834Z" fill="url(#paint0_linear_21_123)"/>
<defs>
<linearGradient id="paint0_linear_21_123" x1="38.7996" y1="-6.16681" x2="-5.21165" y2="-1.7855" gradientUnits="userSpaceOnUse">
<stop stop-color="#6100FF"/>
<stop offset="1" stop-color="#EB00FF"/>
</linearGradient>
</defs>
</svg>
